# xmcd
#
# Track frame offsets: 
#        150
#        21687
#        42530
#        62233
#        83698
#        104957
#        129797
#        149532
#        168631
#        192589
#        213959
#        237540
#        260821
#        281621
#        304259
#
# Disc length: 4345 seconds
#
# Revision: 0
# Processed by: cddbd v1.5.2PL0 Copyright (c) Steve Scherf et al.
# Submitted via: ExactAudioCopy v1.2
#
DISCID=f610f70f
DTITLE=张惠妹 - 15周年世纪精选 [DISC 1]
DYEAR=2011
DGENRE=Pop
TTITLE0=我最亲爱的
TTITLE1=都什么时候了
TTITLE2=BAD BOY
TTITLE3=解脱
TTITLE4=哭不出来
TTITLE5=寂寞保龄球
TTITLE6=姊妹
TTITLE7=奔跑
TTITLE8=听海
TTITLE9=牵手
TTITLE10=一夜情
TTITLE11=别在伤口撒盐
TTITLE12=梦见铁达尼
TTITLE13=最爱的人伤我最深
TTITLE14=原来你什么都不要
EXTD=
EXTT0=
EXTT1=
EXTT2=
EXTT3=
EXTT4=
EXTT5=
EXTT6=
EXTT7=
EXTT8=
EXTT9=
EXTT10=
EXTT11=
EXTT12=
EXTT13=
EXTT14=
PLAYORDER=
